<svg xmlns="http://www.w3.org/2000/svg" style="display: none;">
    <!-- Navigation Icons -->
    <symbol id="home" viewBox="0 0 24 24">
        <path d="M3 9l9-7 9 7v11a2 2 0 0 1-2 2H5a2 2 0 0 1-2-2z"/>
        <polyline points="9 22 9 12 15 12 15 22"/>
    </symbol>
    
    <symbol id="users" viewBox="0 0 24 24">
        <path d="M17 21v-2a4 4 0 0 0-4-4H5a4 4 0 0 0-4 4v2"/>
        <circle cx="9" cy="7" r="4"/>
        <path d="M23 21v-2a4 4 0 0 0-3-3.87"/>
        <path d="M16 3.13a4 4 0 0 1 0 7.75"/>
    </symbol>
    
    <symbol id="user-plus" viewBox="0 0 24 24">
        <path d="M16 21v-2a4 4 0 0 0-4-4H5a4 4 0 0 0-4 4v2"/>
        <circle cx="8.5" cy="7" r="4"/>
        <line x1="20" y1="8" x2="20" y2="14"/>
        <line x1="23" y1="11" x2="17" y2="11"/>
    </symbol>
    
    <symbol id="chart" viewBox="0 0 24 24">
        <line x1="18" y1="20" x2="18" y2="10"/>
        <line x1="12" y1="20" x2="12" y2="4"/>
        <line x1="6" y1="20" x2="6" y2="14"/>
    </symbol>
    
    <symbol id="search" viewBox="0 0 24 24">
        <circle cx="11" cy="11" r="8"/>
        <line x1="21" y1="21" x2="16.65" y2="16.65"/>
    </symbol>
    
    <symbol id="bell" viewBox="0 0 24 24">
        <path d="M18 8A6 6 0 0 0 6 8c0 7-3 9-3 9h18s-3-2-3-9"/>
        <path d="M13.73 21a2 2 0 0 1-3.46 0"/>
    </symbol>
    
    <symbol id="sun" viewBox="0 0 24 24">
        <circle cx="12" cy="12" r="5"/>
        <line x1="12" y1="1" x2="12" y2="3"/>
        <line x1="12" y1="21" x2="12" y2="23"/>
        <line x1="4.22" y1="4.22" x2="5.64" y2="5.64"/>
        <line x1="18.36" y1="18.36" x2="19.78" y2="19.78"/>
        <line x1="1" y1="12" x2="3" y2="12"/>
        <line x1="21" y1="12" x2="23" y2="12"/>
        <line x1="4.22" y1="19.78" x2="5.64" y2="18.36"/>
        <line x1="18.36" y1="5.64" x2="19.78" y2="4.22"/>
    </symbol>
    
    <symbol id="chevron-down" viewBox="0 0 24 24">
        <polyline points="6 9 12 15 18 9"/>
    </symbol>
    
    <!-- Action Icons -->
    <symbol id="download" viewBox="0 0 24 24">
        <path d="M21 15v4a2 2 0 0 1-2 2H5a2 2 0 0 1-2-2v-4"/>
        <polyline points="7 10 12 15 17 10"/>
        <line x1="12" y1="15" x2="12" y2="3"/>
    </symbol>
    
    <symbol id="refresh" viewBox="0 0 24 24">
        <polyline points="23 4 23 10 17 10"/>
        <polyline points="1 20 1 14 7 14"/>
        <path d="M3.51 9a9 9 0 0 1 14.85-3.36L23 10M1 14l4.64 4.36A9 9 0 0 0 20.49 15"/>
    </symbol>
    
    <symbol id="trash" viewBox="0 0 24 24">
        <polyline points="3 6 5 6 21 6"/>
        <path d="M19 6v14a2 2 0 0 1-2 2H7a2 2 0 0 1-2-2V6m3 0V4a2 2 0 0 1 2-2h4a2 2 0 0 1 2 2v2"/>
    </symbol>
    
    <symbol id="edit" viewBox="0 0 24 24">
        <path d="M11 4H4a2 2 0 0 0-2 2v14a2 2 0 0 0 2 2h14a2 2 0 0 0 2-2v-7"/>
        <path d="M18.5 2.5a2.121 2.121 0 0 1 3 3L12 15l-4 1 1-4 9.5-9.5z"/>
    </symbol>
    
    <symbol id="eye" viewBox="0 0 24 24">
        <path d="M1 12s4-8 11-8 11 8 11 8-4 8-11 8-11-8-11-8z"/>
        <circle cx="12" cy="12" r="3"/>
    </symbol>
    
    <!-- Form Icons -->
    <symbol id="upload" viewBox="0 0 24 24">
        <path d="M21 15v4a2 2 0 0 1-2 2H5a2 2 0 0 1-2-2v-4"/>
        <polyline points="17 8 12 3 7 8"/>
        <line x1="12" y1="3" x2="12" y2="15"/>
    </symbol>
    
    <symbol id="save" viewBox="0 0 24 24">
        <path d="M19 21H5a2 2 0 0 1-2-2V5a2 2 0 0 1 2-2h11l5 5v11a2 2 0 0 1-2 2z"/>
        <polyline points="17 21 17 13 7 13 7 21"/>
        <polyline points="7 3 7 8 15 8"/>
    </symbol>
    
    <!-- Status Icons -->
    <symbol id="check-circle" viewBox="0 0 24 24">
        <path d="M22 11.08V12a10 10 0 1 1-5.93-9.14"/>
        <polyline points="22 4 12 14.01 9 11.01"/>
    </symbol>
    
    <symbol id="x" viewBox="0 0 24 24">
        <line x1="18" y1="6" x2="6" y2="18"/>
        <line x1="6" y1="6" x2="18" y2="18"/>
    </symbol>
    
    <symbol id="alert" viewBox="0 0 24 24">
        <path d="M10.29 3.86L1.82 18a2 2 0 0 0 1.71 3h16.94a2 2 0 0 0 1.71-3L13.71 3.86a2 2 0 0 0-3.42 0z"/>
        <line x1="12" y1="9" x2="12" y2="13"/>
        <line x1="12" y1="17" x2="12.01" y2="17"/>
    </symbol>
    
    <!-- Arrow Icons -->
    <symbol id="arrow-right" viewBox="0 0 24 24">
        <line x1="5" y1="12" x2="19" y2="12"/>
        <polyline points="12 5 19 12 12 19"/>
    </symbol>
    
    <symbol id="arrow-left" viewBox="0 0 24 24">
        <line x1="19" y1="12" x2="5" y2="12"/>
        <polyline points="12 19 5 12 12 5"/>
    </symbol>
    
    <!-- Plus Icon -->
    <symbol id="plus" viewBox="0 0 24 24">
        <line x1="12" y1="5" x2="12" y2="19"/>
        <line x1="5" y1="12" x2="19" y2="12"/>
    </symbol>
</svg>